<svg width="88" height="101" viewBox="0 0 88 101" fill="none" xmlns="http://www.w3.org/2000/svg">
<path fill-rule="evenodd" clip-rule="evenodd" d="M63.6255 13.8228H23.9883L23.4275 19.7407H64.1861L63.6255 13.8228Z" fill="#F05475"/>
<path fill-rule="evenodd" clip-rule="evenodd" d="M16.1788 19.7408C14.585 19.7408 13.2794 21.0723 13.2794 22.6997V25.6587H74.7208V22.6997C74.7208 21.0723 73.4152 19.7408 71.8215 19.7408H16.1788ZM43.8067 4.43848C43.8067 2.81123 42.5012 1.47949 40.9072 1.47949H27.7765C26.1827 1.47949 25.0305 2.81952 24.877 4.43848L23.988 13.8228H63.6252L62.7363 4.43848C62.5828 2.81873 61.4305 1.47949 59.8367 1.47949H46.7063C45.1123 1.47949 43.8069 2.81123 43.8067 4.43848Z" fill="#E8AB4C"/>
<path fill-rule="evenodd" clip-rule="evenodd" d="M30.6763 37.7603V25.6587H24.4618V36.2809C24.4618 48.128 21.3269 48.6804 30.9274 52.1126C32.7874 57.7493 40.1644 59.9949 44.0001 60.9955C47.836 59.9947 55.2128 57.7493 57.0727 52.1126C66.6733 48.6804 63.5383 48.128 63.5383 36.2809V25.6587H57.3238V37.7603C57.3238 45.1026 48.4414 40.7245 44.0001 40.7272C39.5588 40.7245 30.6763 45.1026 30.6763 37.7603Z" fill="#E8AB4C"/>
<path fill-rule="evenodd" clip-rule="evenodd" d="M24.4618 36.2809V25.6587H19.0784V33.3219C19.0784 34.9493 20.3834 36.2809 21.9779 36.2809H24.4618ZM63.5383 25.6587V36.2809H66.0225C67.6172 36.2809 68.922 34.9493 68.922 33.3219V25.6587H63.5383Z" fill="#FBF2E2"/>
<path fill-rule="evenodd" clip-rule="evenodd" d="M30.6764 25.6587V37.7603C30.6764 45.1026 39.5588 40.7245 44.0002 40.7272C48.4415 40.7247 57.3239 45.1026 57.3239 37.7603V32.8469V25.6587H30.6764Z" fill="#FBF2E2"/>
<path fill-rule="evenodd" clip-rule="evenodd" d="M44.0001 60.9957C40.1642 59.9949 32.7874 57.7495 30.9274 52.1128L24.4087 54.2947V73.1938H63.5917V54.2949L57.0729 52.1128C55.2128 57.7495 47.836 59.9951 44.0001 60.9957Z" fill="#E5ECF5"/>
<path fill-rule="evenodd" clip-rule="evenodd" d="M24.4084 73.1938V54.2949L18.6094 56.236V76.1527C18.6094 74.5259 19.9146 73.1938 21.5089 73.1938H24.4084Z" fill="#F05475"/>
<path fill-rule="evenodd" clip-rule="evenodd" d="M18.6095 56.2358C10.623 58.9092 4.34937 61.6612 4.34937 70.2387V82.0703H18.6095V56.2358Z" fill="#E5ECF5"/>
<path fill-rule="evenodd" clip-rule="evenodd" d="M1.44995 82.0703H18.6094V87.9883H1.44995V82.0703Z" fill="#E5ECF5"/>
<path fill-rule="evenodd" clip-rule="evenodd" d="M18.6096 99.5207H27.3082V85.0296H60.6922V99.5207H69.3906V76.1528C69.3906 74.5254 68.0852 73.1938 66.491 73.1938H21.5092C19.915 73.1938 18.6096 74.5258 18.6096 76.1528V99.5207Z" fill="#F05475"/>
<path fill-rule="evenodd" clip-rule="evenodd" d="M27.308 85.0293H60.6919V99.5204H27.308V85.0293Z" fill="#E21743"/>
<path fill-rule="evenodd" clip-rule="evenodd" d="M63.5917 73.1938V54.2949L69.3907 56.236V76.1527C69.3907 74.5259 68.0854 73.1938 66.4912 73.1938H63.5917Z" fill="#F05475"/>
<path fill-rule="evenodd" clip-rule="evenodd" d="M69.3906 56.2358C77.3771 58.9092 83.6507 61.6612 83.6507 70.2387V82.0703H69.3906V56.2358Z" fill="#E5ECF5"/>
<path fill-rule="evenodd" clip-rule="evenodd" d="M69.3906 82.0703H86.5501V87.9883H69.3906V82.0703Z" fill="#E5ECF5"/>
<path fill-rule="evenodd" clip-rule="evenodd" d="M69.3904 87.9883H83.6506V99.5204H69.3904V87.9883ZM18.6095 87.9883H4.34937V99.5204H18.6095V87.9883Z" fill="#FBF2E2"/>
<path fill-rule="evenodd" clip-rule="evenodd" d="M28.3374 13.8228H23.9883L23.4275 19.7407H27.7768L28.3374 13.8228Z" fill="#E21743"/>
<path fill-rule="evenodd" clip-rule="evenodd" d="M16.1788 19.7408C14.585 19.7408 13.2794 21.0723 13.2794 22.6997V25.6587H17.6287V22.6997C17.6287 21.0725 18.9343 19.7408 20.5281 19.7408H16.1788ZM32.1258 1.47949H27.7765C26.1827 1.47949 25.0305 2.81952 24.877 4.43848L23.988 13.8228H28.3373L29.2263 4.43848C29.3798 2.81971 30.5321 1.47949 32.1258 1.47949Z" fill="#E1763A"/>
<path fill-rule="evenodd" clip-rule="evenodd" d="M24.4618 25.6589V36.2811C24.4618 48.1282 21.3269 48.6806 30.9274 52.1128C32.7874 57.7495 40.1644 59.9951 44.0001 60.9957C45.7723 60.5333 48.3005 59.805 50.6911 58.5993C45.0076 57.5633 36.9343 54.1776 35.2765 49.1536C25.676 45.7214 28.811 45.1691 28.811 33.3219V30.0972H30.6763V25.6587H24.4618V25.6589ZM63.5383 30.0974V25.6589H57.3239V30.0974H63.5383Z" fill="#E1763A"/>
<path fill-rule="evenodd" clip-rule="evenodd" d="M24.4618 30.0972V25.6587H19.0784V30.0972H24.4618ZM68.922 30.0972V25.6587H63.5385V30.0972H68.922Z" fill="#F7E0BA"/>
<path fill-rule="evenodd" clip-rule="evenodd" d="M30.6764 25.6587H57.3237V30.0972H30.6764V25.6587Z" fill="#F7E0BA"/>
<path fill-rule="evenodd" clip-rule="evenodd" d="M18.6095 56.2358C10.623 58.9092 4.34937 61.6612 4.34937 70.2387V82.0703H8.69867V70.2387C8.69867 63.3847 12.9248 58.5827 18.6095 56.2358Z" fill="#B0C5E0"/>
<path fill-rule="evenodd" clip-rule="evenodd" d="M1.44995 82.0703H5.79926V87.9883H1.44995V82.0703Z" fill="#B0C5E0"/>
<path fill-rule="evenodd" clip-rule="evenodd" d="M69.3904 87.9883H83.6506V92.4268H69.3904V87.9883ZM4.34937 87.9883V99.5204H8.69867V92.4268H18.6095V87.9883H4.34937Z" fill="#F7E0BA"/>
<path d="M58.4215 8.87695H55.5219V5.91797H58.4215V8.87695ZM52.6222 8.87695H49.7227V5.91797H52.6222V8.87695Z" fill="white"/>
<path d="M42.5503 98.041H45.4498V101H42.5503V98.041Z" fill="black"/>
<path d="M42.5503 65.4341H45.4498V68.3931H42.5503V65.4341Z" fill="black"/>
<path d="M22.9587 77.6323H25.8583V80.5913H22.9587V77.6323Z" fill="black"/>
<path d="M62.142 77.6318H65.0415V80.5908H62.142V77.6318Z" fill="black"/>
<path d="M88 80.5909H85.1005V70.2388C85.1005 60.7124 78.1905 57.6244 69.8425 54.8302L61.3475 51.9866C62.8765 51.2504 63.9072 50.4939 64.5748 49.4943C65.7029 47.8059 65.5437 45.8516 65.3022 42.8936C65.1884 41.4972 65.0519 39.8228 65.0049 37.7604H66.0223C68.4204 37.7604 70.3716 35.7692 70.3716 33.3219V27.1382H76.1705V22.6996C76.1705 20.2523 74.2195 18.2613 71.8214 18.2613H65.5023L64.1793 4.29605C63.9437 1.80676 62.1174 0 59.837 0H46.7063C45.5935 0 44.5769 0.428855 43.8068 1.1329C43.0369 0.428855 42.0201 0 40.9073 0H27.7766C25.4962 0 23.6699 1.80676 23.4343 4.29605L22.1111 18.2613H16.1786C13.7805 18.2613 11.8295 20.2523 11.8295 22.6996V27.1382H17.6284V33.3219C17.6284 35.7692 19.5796 37.7604 21.9777 37.7604H22.9951C22.9481 39.823 22.8116 41.4974 22.6978 42.8936C22.4563 45.8516 22.2971 47.8059 23.4252 49.4943C24.0928 50.4937 25.1237 51.2502 26.6527 51.9864L18.1575 54.8302C9.80952 57.6244 2.89954 60.7124 2.89954 70.2388V80.5909H0V89.4678H2.89954V101H39.6508V98.041H28.7578V86.5089H59.2422V98.041H48.3494V101H85.1005V89.4678H88V80.5909ZM82.2009 70.239V80.5911H70.8403V76.1528V58.2951C77.5856 60.6838 82.2009 63.301 82.2009 70.239ZM20.0592 57.3076L22.9587 56.3371V71.7141H21.509C21.0008 71.7141 20.5129 71.8045 20.0592 71.9686V57.3076ZM25.8583 55.3663L30.1187 53.9403C31.2387 56.1653 33.2223 58.0645 36.0407 59.5981C38.7241 61.0582 41.6635 61.913 43.6409 62.429L43.9999 62.5227L44.3589 62.429C47.0864 61.7175 54.9932 59.6527 57.8806 53.9401L62.1415 55.3663V71.7141H25.8583V55.3663ZM65.0415 56.3371L67.941 57.3076V71.9686C67.4873 71.8043 66.9994 71.7141 66.4912 71.7141H65.0415V56.3371ZM67.4722 33.3219C67.4722 34.1378 66.822 34.8014 66.0225 34.8014H64.9881V27.1382H67.4722V33.3219ZM25.3045 15.3023H31.2369V12.3433H25.5847L26.3203 4.58071C26.3968 3.77468 26.9212 2.95879 27.7766 2.95879H40.9073C41.7068 2.95879 42.357 3.62239 42.357 4.43828L45.2566 4.43848C45.2568 3.62278 45.907 2.95898 46.7063 2.95898H59.837C60.6923 2.95898 61.2172 3.77487 61.2935 4.5809L62.0288 12.3435H34.1366V15.3025H62.3091L62.5894 18.2615H25.0242L25.3045 15.3023ZM14.7291 22.6996C14.7291 21.8839 15.3793 21.2203 16.1786 21.2203H71.8215C72.6208 21.2203 73.2711 21.8839 73.2711 22.6996V24.1792H14.7291V22.6996ZM32.1261 27.1382H55.8741V32.8469V37.7602C55.8741 38.8599 55.6365 39.6165 55.1681 40.0088C53.9757 41.0072 50.889 40.3813 48.4086 39.8782C46.8097 39.5537 45.2999 39.2476 44.0061 39.2476C44.0024 39.2478 43.9993 39.2478 43.996 39.2476C42.7007 39.2476 41.1903 39.5539 39.5918 39.8782C37.1112 40.3815 34.0249 41.0076 32.8322 40.0088C32.3637 39.6165 32.1263 38.8599 32.1263 37.7602V27.1382H32.1261ZM20.528 33.3219V27.1382H23.0121V34.8014H21.9777C21.1784 34.8014 20.528 34.1378 20.528 33.3219ZM25.821 47.8274C25.2954 47.0407 25.3742 45.7506 25.5875 43.139C25.7318 41.3682 25.9116 39.1645 25.9116 36.2807V27.138H29.2266V37.7602C29.2266 39.7885 29.8208 41.3147 30.9926 42.2961C33.2447 44.1826 36.9167 43.4375 40.1571 42.7804C41.6118 42.4853 42.9858 42.2066 43.9976 42.2066C43.9997 42.2064 44.0016 42.2064 44.0042 42.2066C45.0142 42.2066 46.3884 42.4853 47.843 42.7804C51.0831 43.4377 54.7553 44.1826 57.0074 42.2961C58.1792 41.3145 58.7734 39.7885 58.7734 37.7602V32.8469V27.1382H62.0884V36.2809C62.0884 39.1645 62.2682 41.3684 62.4125 43.1392C62.6258 45.7506 62.7046 47.0408 62.179 47.8276C61.527 48.8033 59.5582 49.6565 56.5934 50.7166L55.9247 50.9555L55.6988 51.6408C54.0485 56.6417 46.8565 58.7147 43.9999 59.4685C41.1435 58.7149 33.9515 56.6417 32.301 51.6408L32.0751 50.9555L31.4064 50.7166C28.4418 49.6563 26.473 48.8031 25.821 47.8274ZM5.79927 70.239C5.79927 63.3012 10.4146 60.684 17.1599 58.2951V76.1528V80.5911H5.79927V70.239ZM2.89973 83.5499H17.1599V86.5089H2.89973V83.5499ZM5.79927 89.4678H17.1599V98.041H5.79927V89.4678ZM25.8583 83.5499V98.041H20.0592V76.1526C20.0592 75.3367 20.7095 74.6731 21.509 74.6731H66.491C67.2905 74.6731 67.9408 75.3367 67.9408 76.1526V98.041H62.1417V83.5499H25.8583ZM82.2009 98.041H70.8403V89.4678H82.2009V98.041ZM85.1005 86.5089H70.8403V83.5499H85.1005V86.5089Z" fill="black"/>
</svg>
