<svg width="88" height="101" viewBox="0 0 88 101" fill="none" xmlns="http://www.w3.org/2000/svg">
<path fill-rule="evenodd" clip-rule="evenodd" d="M11.6016 75.2714H76.3984V47.8271H11.6016V75.2714ZM11.6016 95.8545H76.3984V82.1323H11.6016V95.8545ZM36.2656 59.8339C36.2656 57.9471 37.4258 56.4033 38.8438 56.4033H49.1562C50.5742 56.4033 51.7344 57.9471 51.7344 59.8339V63.2644C51.7344 65.1512 50.5742 66.695 49.1562 66.695H38.8438C37.4258 66.695 36.2656 65.1512 36.2656 63.2644V59.8339Z" fill="#E8AB4C"/>
<path fill-rule="evenodd" clip-rule="evenodd" d="M38.8438 66.695H49.1562C50.5742 66.695 51.7344 65.1512 51.7344 63.2644V59.8339C51.7344 57.9471 50.5742 56.4033 49.1562 56.4033H38.8438C37.4258 56.4033 36.2656 57.9471 36.2656 59.8339V63.2644C36.2656 65.1512 37.4258 66.695 38.8438 66.695Z" fill="#E1763A"/>
<path fill-rule="evenodd" clip-rule="evenodd" d="M11.6016 75.2715H76.3984V82.1324H11.6016V75.2715Z" fill="#E1763A"/>
<path fill-rule="evenodd" clip-rule="evenodd" d="M76.3984 99.2849H86.7109V40.9658H76.3984V99.2849ZM1.28906 99.2849H11.6016V40.9658H1.28906V99.2849Z" fill="#E8AB4C"/>
<path fill-rule="evenodd" clip-rule="evenodd" d="M50.3499 47.8273H76.3984V40.9662H79.1953C81.6827 27.7544 72.5724 16.4068 62.7671 24.014C56.3689 19.05 50.5865 22.0405 47.7633 28.0778C49.9887 31.5498 50.6334 36.579 49.096 40.9662C50.5014 43.476 50.8156 45.7198 50.3499 47.8273Z" fill="#F05475"/>
<path fill-rule="evenodd" clip-rule="evenodd" d="M50.3499 47.8268H76.3985V40.9657H79.1954C79.5271 39.2035 79.6508 37.4752 79.5957 35.8198H72.5313V42.6809H49.9056C50.6057 44.5154 50.7071 46.211 50.3499 47.8268Z" fill="#E21743"/>
<path fill-rule="evenodd" clip-rule="evenodd" d="M37.3855 47.8273H50.3499C50.8157 45.7198 50.5015 43.4759 49.0961 40.9661C50.6335 36.5791 49.9888 31.5497 47.7633 28.0778C46.9528 26.813 45.9324 25.7548 44.7315 25.0097C41.6778 23.1149 38.2105 23.7118 35.6427 26.1624C36.3754 27.8962 36.7941 29.8928 36.7941 32.0133C40.9959 35.3766 39.9638 41.1464 37.3855 47.8273ZM6.44526 40.9661H11.6015V47.8273H18.1558C15.5775 41.1464 14.5454 35.3766 18.7472 32.0133C18.7472 29.8928 19.1659 27.8962 19.8991 26.1631C17.3308 23.712 13.8634 23.1151 10.8099 25.0099C6.31189 27.8008 4.34787 34.9812 6.44526 40.9661Z" fill="#B6EFBB"/>
<path fill-rule="evenodd" clip-rule="evenodd" d="M37.3855 47.827H50.3499C50.7069 46.2112 50.6056 44.5156 49.9056 42.6812H39.0539C38.6562 44.3121 38.0765 46.0367 37.3855 47.827ZM5.60533 35.8203H15.4687V42.6814H16.4874C16.8853 44.3121 17.4651 46.037 18.156 47.8273H11.6015V40.9662H6.44529C5.86263 39.303 5.59382 37.5479 5.60533 35.8203Z" fill="#71E4BF"/>
<path fill-rule="evenodd" clip-rule="evenodd" d="M37.3856 47.8268C39.9639 41.1459 40.996 35.3761 36.7942 32.0128C36.7942 29.8923 36.3755 27.8957 35.6428 26.1619C34.0935 22.4962 31.1402 20.0059 27.7707 20.0059C24.4013 20.0059 21.448 22.4962 19.8987 26.1619C19.166 27.8957 18.7473 29.8923 18.7473 32.0128C14.5455 35.3761 15.5776 41.1459 18.1559 47.8268H37.3856Z" fill="#B6EFBB"/>
<path fill-rule="evenodd" clip-rule="evenodd" d="M37.3856 47.827C38.0765 46.0367 38.6563 44.3118 39.0541 42.6812H16.4873C16.8852 44.3118 17.4649 46.0367 18.1559 47.827H37.3856Z" fill="#71E4BF"/>
<path fill-rule="evenodd" clip-rule="evenodd" d="M62.7672 15.4344C67.0211 15.4344 70.5023 10.8063 70.5023 5.14589V1.71533C66.248 1.71533 62.7672 6.34567 62.7672 12.007V15.4344Z" fill="#B6EFBB"/>
<path fill-rule="evenodd" clip-rule="evenodd" d="M76.3984 99.2849H80.2656V40.9658H76.3984V99.2849ZM1.28906 99.2849H5.15625V40.9658H1.28906V99.2849Z" fill="#E1763A"/>
<path fill-rule="evenodd" clip-rule="evenodd" d="M11.6016 95.8545H15.4688V82.1323H11.6016V95.8545ZM11.6016 75.2714H15.4688V47.8271H11.6016V75.2714Z" fill="#E1763A"/>
<path d="M72.5312 56.4037H69.9531V52.9731H72.5312V56.4037ZM67.375 56.4037H64.7969V52.9731H67.375V56.4037Z" fill="white"/>
<path d="M80.7551 39.2506C81.4215 32.8078 79.6288 26.5512 75.9576 22.8818C72.5732 19.4993 68.2428 18.9461 64.0564 21.25V17.0275C68.424 16.1929 71.7915 11.1825 71.7915 5.14584V0H70.5024C65.5265 0 61.4783 5.38621 61.4783 12.007V21.242C58.8124 19.7484 56.1246 19.4037 53.6063 20.2584C51.2624 21.0538 49.176 22.8676 47.5996 25.4415C46.9035 24.6529 46.1258 23.9821 45.2765 23.4552C42.3182 21.6196 38.8872 21.7861 36.0369 23.82C34.1548 20.4669 31.1506 18.2911 27.7709 18.2911C24.3911 18.2911 21.3869 20.4669 19.5049 23.82C16.6547 21.7861 13.2239 21.6198 10.2654 23.4552C9.82025 23.7315 9.38455 24.0546 8.9705 24.416L10.3843 27.2846C10.6953 27.0134 11.0217 26.7709 11.3549 26.5644C13.5537 25.2002 16.1028 25.3139 18.2323 26.8055C17.8209 28.1352 17.56 29.5675 17.4828 31.0667C15.5172 32.9329 14.5549 35.5042 14.6207 38.7228C14.6635 40.8154 15.1432 43.2054 16.1097 46.112H12.8906V39.2511H7.3138C6.43689 35.8553 6.96111 32.0224 8.73675 29.2268L6.76775 27.0122C4.59645 30.4304 3.83264 35.0175 4.62842 39.2509H0V101H12.8906V97.5694H62.2188V94.1389H12.8906V83.8472H75.1094V94.1389H69.9531V97.5694H75.1094V101H88V39.2506H80.7551ZM64.0563 12.0067C64.0563 7.8649 66.2743 4.39935 69.2132 3.60277V5.14584C69.2132 9.28629 66.9952 12.7505 64.0563 13.5468V12.0067ZM54.2432 23.5821C56.705 22.7469 59.4278 23.4085 62.1179 25.4955L62.7672 25.9993L63.4165 25.4955C67.3032 22.4802 71.3097 22.5271 74.4092 25.6247C77.4123 28.6262 78.8231 33.8688 78.1469 39.2504H75.1094V46.1113H51.836C51.8521 44.3423 51.4267 42.5529 50.5593 40.7628C51.4372 37.6945 51.4558 34.3369 50.5986 31.2028C50.2851 30.0565 49.8652 28.9896 49.356 28.0162C50.6112 25.7932 52.3194 24.2351 54.2432 23.5821ZM44.1868 26.564C46.0501 27.7201 47.4667 29.7843 48.1757 32.3765C48.8847 34.9686 48.7967 37.7613 47.9277 40.2409L47.6023 41.1694L48.0624 41.991C49.0394 43.7353 49.2821 45.0878 49.2633 46.1117H39.4321C40.3985 43.2054 40.8782 40.8154 40.921 38.7225C40.9867 35.504 40.0245 32.9327 38.059 31.0665C37.9818 29.5673 37.7209 28.1347 37.3094 26.8052C39.439 25.3136 41.988 25.2 44.1868 26.564ZM19.4117 33.4827L20.0363 32.9828V32.0128C20.0363 26.338 23.506 21.7212 27.7707 21.7212C32.0354 21.7212 35.5051 26.338 35.5051 32.0128V32.9828L36.1297 33.4827C39.3446 36.0561 38.7023 40.3948 36.5903 46.1115H29.0598V30.2976H26.4816V46.1115H18.9511C16.8393 40.3951 16.1968 36.0561 19.4117 33.4827ZM75.1094 49.5421V73.5558H12.8906V49.5421H75.1094ZM10.3125 97.5694H2.57812V42.6812H10.3125V97.5694ZM12.8906 80.4166V76.9863H75.1094V80.4166H12.8906ZM85.4219 97.5694H77.6875V42.6812H85.4219V97.5694Z" fill="black"/>
<path d="M64.7969 94.1392H67.375V97.5697H64.7969V94.1392Z" fill="black"/>
<path d="M38.8438 68.4102H49.1562C51.2887 68.4102 53.0234 66.1019 53.0234 63.2644V59.8338C53.0234 56.9963 51.2887 54.688 49.1562 54.688H38.8438C36.7113 54.688 34.9766 56.9963 34.9766 59.8338V63.2644C34.9766 66.1017 36.7113 68.4102 38.8438 68.4102ZM37.5547 59.8338C37.5547 58.8881 38.133 58.1185 38.8438 58.1185H49.1562C49.867 58.1185 50.4453 58.8881 50.4453 59.8338V63.2644C50.4453 64.2101 49.867 64.9797 49.1562 64.9797H38.8438C38.133 64.9797 37.5547 64.2101 37.5547 63.2644V59.8338Z" fill="black"/>
</svg>
