<svg width="88" height="101" viewBox="0 0 88 101" fill="none" xmlns="http://www.w3.org/2000/svg">
<path fill-rule="evenodd" clip-rule="evenodd" d="M1.44263 81.7666H12.9836V93.6025H59.1475V69.5363C59.1475 67.9087 60.4459 66.5773 62.0328 66.5773V57.5047C51.4459 56.0582 43.2787 46.761 43.2787 35.5078C43.2787 23.2513 52.967 13.3154 64.918 13.3154V1.47949H1.44263V81.7666ZM21.6399 25.1512C16.8793 25.1512 12.9834 21.1567 12.9834 16.2744V13.3154C17.7445 13.3154 21.6399 17.3103 21.6399 22.1924V25.1512ZM21.6399 29.5244V26.5654C21.6399 21.6823 25.5352 17.6884 30.2964 17.6884V20.6474C30.2964 25.5299 26.4006 29.5244 21.6399 29.5244ZM21.6399 41.3603C16.8793 41.3603 12.9842 37.3657 12.9842 32.4833V29.5244C17.7054 29.5244 21.5753 33.4517 21.6399 38.2788V41.3603Z" fill="#E5ECF5"/>
<path fill-rule="evenodd" clip-rule="evenodd" d="M12.9834 16.2746C12.9834 21.1569 16.8793 25.1514 21.6399 25.1514V22.1924C21.6399 17.3103 17.7444 13.3154 12.9834 13.3154V16.2746ZM60.1093 32.2204C60.1093 37.6448 64.4368 42.0829 69.7258 42.0829L69.7268 38.7952C69.7268 33.371 65.3989 28.9328 60.1093 28.9328V32.2204Z" fill="#B6EFBB"/>
<path fill-rule="evenodd" clip-rule="evenodd" d="M21.6399 29.5242C26.4006 29.5242 30.2964 25.5298 30.2964 20.6475V17.6885C25.5354 17.6885 21.6399 21.6823 21.6399 26.5654V29.5242ZM12.9844 32.4834C12.9844 37.3657 16.8795 41.3604 21.6401 41.3604V38.2787C21.5757 33.4516 17.7056 29.5242 12.9844 29.5242V32.4834Z" fill="#71E4BF"/>
<path fill-rule="evenodd" clip-rule="evenodd" d="M43.2787 35.5078C43.2787 47.7955 52.9973 57.7002 64.918 57.7002C76.8387 57.7002 86.5574 47.7955 86.5574 35.5078C86.5574 23.2513 76.8691 13.3154 64.918 13.3154C52.967 13.3154 43.2787 23.2513 43.2787 35.5078ZM64.918 51.7824C56.1521 51.7824 49.0492 44.498 49.0492 35.508C49.0492 26.518 56.1521 19.2336 64.918 19.2336C73.684 19.2336 80.7869 26.518 80.7869 35.508C80.7869 44.4978 73.684 51.7824 64.918 51.7824Z" fill="#E8AB4C"/>
<path fill-rule="evenodd" clip-rule="evenodd" d="M49.0492 35.5078C49.0492 44.4978 56.1521 51.7822 64.918 51.7822C73.684 51.7822 80.7869 44.4978 80.7869 35.5078C80.7869 26.5178 73.684 19.2334 64.918 19.2334C56.1521 19.2334 49.0492 26.518 49.0492 35.5078ZM69.7258 42.0829C64.4368 42.0829 60.1093 37.6448 60.1093 32.2204V28.9328C65.3989 28.9328 69.7268 33.3708 69.7268 38.7952L69.7258 42.0829Z" fill="#B6E6FA"/>
<path fill-rule="evenodd" clip-rule="evenodd" d="M62.0327 66.577H67.8032V57.5044C65.8928 57.7654 63.9431 57.7654 62.0327 57.5044V66.577Z" fill="#E1763A"/>
<path fill-rule="evenodd" clip-rule="evenodd" d="M64.918 99.5203C68.0917 99.5203 70.6884 96.8574 70.6884 93.6023V69.5361C70.6884 67.9085 69.3901 66.5771 67.8032 66.5771H62.0327C60.4458 66.5771 59.1475 67.9085 59.1475 69.5361V93.6023C59.1475 96.8572 61.744 99.5203 64.918 99.5203Z" fill="#E8AB4C"/>
<path fill-rule="evenodd" clip-rule="evenodd" d="M1.44263 81.7666L12.9836 93.6025V81.7666H1.44263Z" fill="#B0C5E0"/>
<path fill-rule="evenodd" clip-rule="evenodd" d="M1.44263 1.47949H5.7705V81.7664H1.44263V1.47949Z" fill="#B0C5E0"/>
<path fill-rule="evenodd" clip-rule="evenodd" d="M49.0492 35.5074C49.0492 45.4125 57.572 52.9601 67.082 51.6307C59.3405 50.5487 53.3771 43.7444 53.3771 35.5074C53.3771 27.2703 59.3405 20.4661 67.082 19.3841C57.572 18.0549 49.0492 25.6023 49.0492 35.5074Z" fill="#8BB3D8"/>
<path fill-rule="evenodd" clip-rule="evenodd" d="M64.918 99.5203C65.6822 99.5203 66.4127 99.3655 67.0819 99.0857C64.9722 98.2032 63.4753 96.0737 63.4753 93.6023V69.5361C63.4753 67.9085 64.7737 66.5771 66.3606 66.5771H62.0327C60.4458 66.5771 59.1475 67.9085 59.1475 69.5361V93.6023C59.1475 96.8572 61.744 99.5203 64.918 99.5203Z" fill="#E1763A"/>
<path d="M60.5902 8.87695H57.7049V5.91797H60.5902V8.87695ZM54.8197 8.87695H51.9344V5.91797H54.8197V8.87695Z" fill="white"/>
<path d="M88 35.5078C88 22.9521 78.4185 12.6501 66.3607 11.8835V0H11.541V2.95898H63.4754V11.8835C51.4176 12.6499 41.8361 22.9521 41.8361 35.5078C41.8361 47.0437 49.9246 56.677 60.5902 58.7605V65.3523C58.9111 65.9631 57.7049 67.6075 57.7049 69.5363V92.123H14.4262V80.2871H2.88525V2.95898H8.65574V0H0V82.3793L12.3862 95.082H57.8501C58.5203 98.4545 61.4346 101 64.918 101C68.8954 101 72.1311 97.6816 72.1311 93.6025V89.1641H69.2459V93.6025C69.2459 96.05 67.3043 98.041 64.918 98.041C62.5317 98.041 60.5902 96.0498 60.5902 93.6025V69.5361C60.5902 68.7204 61.2372 68.0566 62.0328 68.0566H67.8033C68.5988 68.0566 69.2459 68.7204 69.2459 69.5361V80.2871H72.1311V69.5361C72.1311 67.6075 70.9249 65.9629 69.2459 65.3521V58.7603C79.9115 56.677 88 47.0437 88 35.5078ZM11.541 90.0307L4.92531 83.2461H11.541V90.0307ZM44.7213 35.5078C44.7213 24.0867 53.7816 14.7949 64.918 14.7949C76.0545 14.7949 85.1148 24.0867 85.1148 35.5078C85.1148 46.9289 76.0545 56.2207 64.918 56.2207C53.7816 56.2207 44.7213 46.9287 44.7213 35.5078ZM66.3607 65.0977H63.4754V59.1319C63.9526 59.1623 64.4333 59.1795 64.918 59.1795C65.4028 59.1795 65.8834 59.1623 66.3607 59.1319V65.0977Z" fill="black"/>
<path d="M82.2295 35.5078C82.2295 25.7183 74.4636 17.7539 64.918 17.7539C55.3725 17.7539 47.6066 25.7183 47.6066 35.5078C47.6066 45.2973 55.3725 53.2617 64.918 53.2617C74.4636 53.2617 82.2295 45.2971 82.2295 35.5078ZM50.4918 35.5078C50.4918 27.3499 56.9634 20.7129 64.918 20.7129C72.8727 20.7129 79.3443 27.3499 79.3443 35.5078C79.3443 43.6657 72.8727 50.3027 64.918 50.3027C56.9634 50.3027 50.4918 43.6655 50.4918 35.5078Z" fill="black"/>
<path d="M69.2458 83.2461H72.1311V86.2051H69.2458V83.2461Z" fill="black"/>
<path d="M71.1681 43.562L71.1695 38.7949C71.1695 32.541 66.208 27.4531 60.1094 27.4531H58.6667V32.2202C58.6667 38.4742 63.6278 43.5622 69.7259 43.5622H71.1681V43.562ZM68.2837 40.4725C64.4619 39.772 61.552 36.3382 61.552 32.2202V30.5429C65.374 31.2436 68.2842 34.6774 68.2842 38.7949L68.2837 40.4725Z" fill="black"/>
<path d="M14.4277 57.5693H41.8374V60.5283H14.4277V57.5693Z" fill="black"/>
<path d="M17.313 70.8846V73.8436H14.4277V76.8025H41.8374V63.4873H38.9521V73.8436H34.6243V66.4463H31.739V73.8436H27.4113V69.4053H24.5261V73.8436H20.1982V70.8846H17.313Z" fill="black"/>
<path d="M14.4277 51.6514H41.8374V54.6104H14.4277V51.6514Z" fill="black"/>
<path d="M20.1973 26.5253V31.1595C18.3628 29.2385 15.8071 28.0449 12.9844 28.0449H11.5417V32.4833C11.5417 37.6915 15.3101 42.0142 20.1973 42.7344V45.7335H14.4277V48.6925H28.854V45.7335H23.0825V38.4013H23.0835C23.0835 38.354 23.0831 38.3068 23.0825 38.2597V30.8985C27.9701 30.1785 31.739 25.8558 31.739 20.6476V16.2091H30.2964C27.3129 16.2091 24.6273 17.5426 22.7769 19.6591C21.6722 15.1687 17.7002 11.8359 12.9834 11.8359H11.5408V16.2744C11.5408 21.4826 15.3097 25.8053 20.1973 26.5253ZM20.1973 39.7323C16.9091 39.0448 14.427 36.0558 14.427 32.4833V31.1524C17.6788 31.8318 20.1421 34.7616 20.1973 38.2806V39.7323ZM23.0825 26.5654C23.0825 22.9929 25.5648 20.0037 28.8538 19.3166V20.6476C28.8538 24.2201 26.3715 27.2092 23.0825 27.8963V26.5654ZM14.426 14.9435C17.715 15.6305 20.1973 18.6197 20.1973 22.1922V23.5231C16.9083 22.8361 14.426 19.8469 14.426 16.2744V14.9435Z" fill="black"/>
</svg>
